ffmpeg started on 2025-05-06 at 09:42:59
Report written to "D:\Convert\FFMetrics\reports\psnr_report-6.txt"
Log level: 32
Command line:
ffmpeg -hide_banner -nostdin -i "G:\\\xc0\xed\xe8\xec\xe5\\\xce\xed\xe3\xee\xe8\xed\xe3\xe8\\!_35_\xcb\xe5\xf2\xee_2024\\JamClub\\\xc1\xe0\xf1\xed\xff\\[JAM_CLUB]_The_Fable_11_[1080p][RUS][DUB]_HEVC.mkv" -i "G:\\\xc0\xed\xe8\xec\xe5\\\xce\xed\xe3\xee\xe8\xed\xe3\xe8\\!_35_\xcb\xe5\xf2\xee_2024\\JamClub\\\xc1\xe0\xf1\xed\xff\\[JAM_CLUB]_The_Fable_11_[1080p][RUS][DUB].mp4" -lavfi "[0:v]settb=AVTB,setpts=PTS-STARTPTS,format=pix_fmts=yuv420p10,fps=24000/1001,scale=1920:1080:flags=bicubic[main];[1:v]settb=AVTB,setpts=PTS-STARTPTS,format=pix_fmts=yuv420p,fps=24000/1001,scale=1920:1080:flags=bicubic[ref];[main][ref]psnr=eof_action=endall:stats_file='D\\:/Convert/FFMetrics/logs/psnr_logfile-6.txt'" -f null -
Input #0, matroska,webm, from 'G:\Аниме\Онгоинги\!_35_Лето_2024\JamClub\Басня\[JAM_CLUB]_The_Fable_11_[1080p][RUS][DUB]_HEVC.mkv':
  Metadata:
    COMPATIBLE_BRANDS: isomiso2avc1mp41
    MAJOR_BRAND     : isom
    MINOR_VERSION   : 512
    ENCODER         : Lavf61.7.100
  Duration: 00:23:14.37, start: -0.001000, bitrate: 854 kb/s
  Stream #0:0: Video: hevc (Main 10), yuv420p10le(tv, bt709, progressive), 1920x1080 [SAR 1:1 DAR 16:9], 23.98 fps, 23.98 tbr, 1k tbn (default)
      Metadata:
        HANDLER_NAME    : VideoHandler
        VENDOR_ID       : [0][0][0][0]
        ENCODER         : Lavc61.19.100 libx265
        BPS             : 654190
        DURATION        : 00:23:14.225708333
        NUMBER_OF_FRAMES: 33428
        NUMBER_OF_BYTES : 114011171
        _STATISTICS_WRITING_APP: mkvpropedit v66.0.0 ('Josie') 64-bit
        _STATISTICS_WRITING_DATE_UTC: 2025-05-05 14:01:32
        _STATISTICS_TAGS: BPS DURATION NUMBER_OF_FRAMES NUMBER_OF_BYTES
  Stream #0:1(eng): Audio: aac (LC), 48000 Hz, stereo, fltp (default)
      Metadata:
        HANDLER_NAME    : SoundHandler
        VENDOR_ID       : [0][0][0][0]
        ENCODER         : Lavc61.19.100 aac
        BPS             : 196122
        DURATION        : 00:23:14.328000000
        NUMBER_OF_FRAMES: 65360
        NUMBER_OF_BYTES : 34182380
        _STATISTICS_WRITING_APP: mkvpropedit v66.0.0 ('Josie') 64-bit
        _STATISTICS_WRITING_DATE_UTC: 2025-05-05 14:01:32
        _STATISTICS_TAGS: BPS DURATION NUMBER_OF_FRAMES NUMBER_OF_BYTES
Input #1, mov,mp4,m4a,3gp,3g2,mj2, from 'G:\Аниме\Онгоинги\!_35_Лето_2024\JamClub\Басня\[JAM_CLUB]_The_Fable_11_[1080p][RUS][DUB].mp4':
  Metadata:
    major_brand     : isom
    minor_version   : 512
    compatible_brands: isomiso2avc1mp41
    encoder         : Lavf60.16.100
  Duration: 00:23:14.35, start: 0.000000, bitrate: 3249 kb/s
  Stream #1:0[0x1](und): Video: h264 (High) (avc1 / 0x31637661), yuv420p(progressive), 1920x1080, 3052 kb/s, 23.98 fps, 23.98 tbr, 90k tbn (default)
      Metadata:
        handler_name    : VideoHandler
        vendor_id       : [0][0][0][0]
  Stream #1:1[0x2](eng): Audio: aac (LC) (mp4a / 0x6134706D), 48000 Hz, stereo, fltp, 191 kb/s (default)
      Metadata:
        handler_name    : SoundHandler
        vendor_id       : [0][0][0][0]
Stream mapping:
  Stream #0:0 (hevc) -> settb:default
  Stream #1:0 (h264) -> settb:default
  psnr:default -> Stream #0:0 (wrapped_avframe)
  Stream #0:1 -> #0:1 (aac (native) -> pcm_s16le (native))
Output #0, null, to 'pipe:':
  Metadata:
    COMPATIBLE_BRANDS: isomiso2avc1mp41
    MAJOR_BRAND     : isom
    MINOR_VERSION   : 512
    encoder         : Lavf61.7.100
  Stream #0:0: Video: wrapped_avframe, yuv420p10le(tv, bt709, progressive), 1920x1080 [SAR 1:1 DAR 16:9], q=2-31, 200 kb/s, 23.98 fps, 23.98 tbn
      Metadata:
        encoder         : Lavc61.19.100 wrapped_avframe
  Stream #0:1(eng): Audio: pcm_s16le, 48000 Hz, stereo, s16, 1536 kb/s (default)
      Metadata:
        HANDLER_NAME    : SoundHandler
        VENDOR_ID       : [0][0][0][0]
        _STATISTICS_TAGS: BPS DURATION NUMBER_OF_FRAMES NUMBER_OF_BYTES
        BPS             : 196122
        DURATION        : 00:23:14.328000000
        NUMBER_OF_FRAMES: 65360
        NUMBER_OF_BYTES : 34182380
        _STATISTICS_WRITING_APP: mkvpropedit v66.0.0 ('Josie') 64-bit
        _STATISTICS_WRITING_DATE_UTC: 2025-05-05 14:01:32
        encoder         : Lavc61.19.100 pcm_s16le
frame=  121 fps=0.0 q=-0.0 size=N/A time=00:00:05.04 bitrate=N/A speed=9.79x    frame=  282 fps=276 q=-0.0 size=N/A time=00:00:11.76 bitrate=N/A speed=11.5x    frame=  439 fps=284 q=-0.0 size=N/A time=00:00:18.30 bitrate=N/A speed=11.9x    frame=  682 fps=332 q=-0.0 size=N/A time=00:00:28.44 bitrate=N/A speed=13.8x    frame=  919 fps=358 q=-0.0 size=N/A time=00:00:38.32 bitrate=N/A speed=14.9x    frame= 1184 fps=384 q=-0.0 size=N/A time=00:00:49.38 bitrate=N/A speed=  16x    frame= 1446 fps=402 q=-0.0 size=N/A time=00:01:00.31 bitrate=N/A speed=16.8x    frame= 1680 fps=407 q=-0.0 size=N/A time=00:01:10.07 bitrate=N/A speed=  17x    frame= 1881 fps=406 q=-0.0 size=N/A time=00:01:18.45 bitrate=N/A speed=16.9x    frame= 2086 fps=405 q=-0.0 size=N/A time=00:01:27.00 bitrate=N/A speed=16.9x    frame= 2303 fps=406 q=-0.0 size=N/A time=00:01:36.05 bitrate=N/A speed=16.9x    frame= 2494 fps=403 q=-0.0 size=N/A time=00:01:44.02 bitrate=N/A speed=16.8x    frame= 2720 fps=406 q=-0.0 size=N/A time=00:01:53.44 bitrate=N/A speed=16.9x    frame= 2968 fps=411 q=-0.0 size=N/A time=00:02:03.79 bitrate=N/A speed=17.2x    frame= 3200 fps=414 q=-0.0 size=N/A time=00:02:13.46 bitrate=N/A speed=17.3x    frame= 3452 fps=419 q=-0.0 size=N/A time=00:02:23.97 bitrate=N/A speed=17.5x    frame= 3667 fps=418 q=-0.0 size=N/A time=00:02:32.94 bitrate=N/A speed=17.4x    frame= 3901 fps=420 q=-0.0 size=N/A time=00:02:42.70 bitrate=N/A speed=17.5x    frame= 4143 fps=423 q=-0.0 size=N/A time=00:02:52.79 bitrate=N/A speed=17.6x    frame= 4384 fps=425 q=-0.0 size=N/A time=00:03:02.84 bitrate=N/A speed=17.7x    frame= 4572 fps=423 q=-0.0 size=N/A time=00:03:10.69 bitrate=N/A speed=17.6x    frame= 4792 fps=422 q=-0.0 size=N/A time=00:03:19.86 bitrate=N/A speed=17.6x    frame= 5046 fps=425 q=-0.0 size=N/A time=00:03:30.46 bitrate=N/A speed=17.7x    frame= 5312 fps=429 q=-0.0 size=N/A time=00:03:41.55 bitrate=N/A speed=17.9x    frame= 5580 fps=433 q=-0.0 size=N/A time=00:03:52.73 bitrate=N/A speed=18.1x    frame= 5840 fps=436 q=-0.0 size=N/A time=00:04:03.57 bitrate=N/A speed=18.2x    frame= 6097 fps=438 q=-0.0 size=N/A time=00:04:14.29 bitrate=N/A speed=18.3x    frame= 6354 fps=440 q=-0.0 size=N/A time=00:04:25.01 bitrate=N/A speed=18.4x    frame= 6601 fps=441 q=-0.0 size=N/A time=00:04:35.31 bitrate=N/A speed=18.4x    frame= 6847 fps=443 q=-0.0 size=N/A time=00:04:45.57 bitrate=N/A speed=18.5x    frame= 7099 fps=444 q=-0.0 size=N/A time=00:04:56.08 bitrate=N/A speed=18.5x    frame= 7351 fps=446 q=-0.0 size=N/A time=00:05:06.59 bitrate=N/A speed=18.6x    frame= 7613 fps=447 q=-0.0 size=N/A time=00:05:17.52 bitrate=N/A speed=18.7x    frame= 7885 fps=450 q=-0.0 size=N/A time=00:05:28.87 bitrate=N/A speed=18.8x    frame= 8158 fps=452 q=-0.0 size=N/A time=00:05:40.25 bitrate=N/A speed=18.9x    frame= 8422 fps=454 q=-0.0 size=N/A time=00:05:51.26 bitrate=N/A speed=18.9x    frame= 8698 fps=456 q=-0.0 size=N/A time=00:06:02.77 bitrate=N/A speed=  19x    frame= 8970 fps=458 q=-0.0 size=N/A time=00:06:14.12 bitrate=N/A speed=19.1x    frame= 9238 fps=460 q=-0.0 size=N/A time=00:06:25.30 bitrate=N/A speed=19.2x    frame= 9537 fps=462 q=-0.0 size=N/A time=00:06:37.77 bitrate=N/A speed=19.3x    frame= 9808 fps=464 q=-0.0 size=N/A time=00:06:49.07 bitrate=N/A speed=19.4x    frame=10094 fps=466 q=-0.0 size=N/A time=00:07:01.00 bitrate=N/A speed=19.4x    frame=10367 fps=468 q=-0.0 size=N/A time=00:07:12.39 bitrate=N/A speed=19.5x    frame=10632 fps=469 q=-0.0 size=N/A time=00:07:23.44 bitrate=N/A speed=19.5x    frame=10884 fps=469 q=-0.0 size=N/A time=00:07:33.95 bitrate=N/A speed=19.6x    frame=11156 fps=470 q=-0.0 size=N/A time=00:07:45.29 bitrate=N/A speed=19.6x    frame=11414 fps=471 q=-0.0 size=N/A time=00:07:56.10 bitrate=N/A speed=19.7x    frame=11697 fps=473 q=-0.0 size=N/A time=00:08:07.86 bitrate=N/A speed=19.7x    frame=11951 fps=473 q=-0.0 size=N/A time=00:08:18.45 bitrate=N/A speed=19.7x    frame=12183 fps=473 q=-0.0 size=N/A time=00:08:28.13 bitrate=N/A speed=19.7x    frame=12450 fps=473 q=-0.0 size=N/A time=00:08:39.26 bitrate=N/A speed=19.7x    frame=12714 fps=474 q=-0.0 size=N/A time=00:08:50.27 bitrate=N/A speed=19.8x    frame=12979 fps=475 q=-0.0 size=N/A time=00:09:01.33 bitrate=N/A speed=19.8x    frame=13247 fps=476 q=-0.0 size=N/A time=00:09:12.51 bitrate=N/A speed=19.9x    frame=13499 fps=476 q=-0.0 size=N/A time=00:09:23.02 bitrate=N/A speed=19.9x    frame=13724 fps=475 q=-0.0 size=N/A time=00:09:32.40 bitrate=N/A speed=19.8x    frame=13982 fps=476 q=-0.0 size=N/A time=00:09:43.16 bitrate=N/A speed=19.8x    frame=14223 fps=476 q=-0.0 size=N/A time=00:09:53.21 bitrate=N/A speed=19.8x    frame=14490 fps=476 q=-0.0 size=N/A time=00:10:04.35 bitrate=N/A speed=19.9x    frame=14774 fps=477 q=-0.0 size=N/A time=00:10:16.19 bitrate=N/A speed=19.9x    frame=15048 fps=478 q=-0.0 size=N/A time=00:10:27.62 bitrate=N/A speed=19.9x    frame=15321 fps=479 q=-0.0 size=N/A time=00:10:39.01 bitrate=N/A speed=  20x    frame=15548 fps=478 q=-0.0 size=N/A time=00:10:48.48 bitrate=N/A speed=  20x    frame=15781 fps=478 q=-0.0 size=N/A time=00:10:58.19 bitrate=N/A speed=19.9x    frame=16014 fps=478 q=-0.0 size=N/A time=00:11:07.91 bitrate=N/A speed=19.9x    frame=16263 fps=478 q=-0.0 size=N/A time=00:11:18.30 bitrate=N/A speed=19.9x    frame=16514 fps=478 q=-0.0 size=N/A time=00:11:28.77 bitrate=N/A speed=19.9x    frame=16766 fps=478 q=-0.0 size=N/A time=00:11:39.28 bitrate=N/A speed=19.9x    frame=17006 fps=478 q=-0.0 size=N/A time=00:11:49.29 bitrate=N/A speed=19.9x    frame=17268 fps=478 q=-0.0 size=N/A time=00:12:00.21 bitrate=N/A speed=  20x    frame=17519 fps=478 q=-0.0 size=N/A time=00:12:10.68 bitrate=N/A speed=  20x    frame=17770 fps=479 q=-0.0 size=N/A time=00:12:21.15 bitrate=N/A speed=  20x    frame=18036 fps=479 q=-0.0 size=N/A time=00:12:32.25 bitrate=N/A speed=  20x    frame=18308 fps=480 q=-0.0 size=N/A time=00:12:43.59 bitrate=N/A speed=  20x    frame=18574 fps=480 q=-0.0 size=N/A time=00:12:54.69 bitrate=N/A speed=  20x    frame=18846 fps=481 q=-0.0 size=N/A time=00:13:06.03 bitrate=N/A speed=20.1x    frame=19116 fps=481 q=-0.0 size=N/A time=00:13:17.29 bitrate=N/A speed=20.1x    frame=19387 fps=482 q=-0.0 size=N/A time=00:13:28.59 bitrate=N/A speed=20.1x    frame=19652 fps=482 q=-0.0 size=N/A time=00:13:39.65 bitrate=N/A speed=20.1x    frame=19921 fps=483 q=-0.0 size=N/A time=00:13:50.87 bitrate=N/A speed=20.1x    frame=20205 fps=484 q=-0.0 size=N/A time=00:14:02.71 bitrate=N/A speed=20.2x    frame=20476 fps=484 q=-0.0 size=N/A time=00:14:14.01 bitrate=N/A speed=20.2x    frame=20748 fps=485 q=-0.0 size=N/A time=00:14:25.36 bitrate=N/A speed=20.2x    frame=21022 fps=485 q=-0.0 size=N/A time=00:14:36.79 bitrate=N/A speed=20.2x    frame=21274 fps=485 q=-0.0 size=N/A time=00:14:47.30 bitrate=N/A speed=20.2x    frame=21556 fps=486 q=-0.0 size=N/A time=00:14:59.06 bitrate=N/A speed=20.3x    frame=21816 fps=486 q=-0.0 size=N/A time=00:15:09.90 bitrate=N/A speed=20.3x    frame=22095 fps=487 q=-0.0 size=N/A time=00:15:21.54 bitrate=N/A speed=20.3x    frame=22362 fps=487 q=-0.0 size=N/A time=00:15:32.68 bitrate=N/A speed=20.3x    frame=22632 fps=487 q=-0.0 size=N/A time=00:15:43.94 bitrate=N/A speed=20.3x    frame=22903 fps=488 q=-0.0 size=N/A time=00:15:55.24 bitrate=N/A speed=20.3x    frame=23176 fps=488 q=-0.0 size=N/A time=00:16:06.63 bitrate=N/A speed=20.4x    frame=23439 fps=489 q=-0.0 size=N/A time=00:16:17.60 bitrate=N/A speed=20.4x    frame=23721 fps=489 q=-0.0 size=N/A time=00:16:29.36 bitrate=N/A speed=20.4x    frame=23996 fps=490 q=-0.0 size=N/A time=00:16:40.83 bitrate=N/A speed=20.4x    frame=24267 fps=490 q=-0.0 size=N/A time=00:16:52.13 bitrate=N/A speed=20.4x    frame=24519 fps=490 q=-0.0 size=N/A time=00:17:02.64 bitrate=N/A speed=20.4x    frame=24760 fps=490 q=-0.0 size=N/A time=00:17:12.69 bitrate=N/A speed=20.4x    frame=25017 fps=490 q=-0.0 size=N/A time=00:17:23.41 bitrate=N/A speed=20.4x    frame=25296 fps=490 q=-0.0 size=N/A time=00:17:35.05 bitrate=N/A speed=20.4x    frame=25566 fps=491 q=-0.0 size=N/A time=00:17:46.31 bitrate=N/A speed=20.5x    frame=25831 fps=491 q=-0.0 size=N/A time=00:17:57.36 bitrate=N/A speed=20.5x    frame=26120 fps=492 q=-0.0 size=N/A time=00:18:09.42 bitrate=N/A speed=20.5x    frame=26398 fps=492 q=-0.0 size=N/A time=00:18:21.01 bitrate=N/A speed=20.5x    frame=26640 fps=492 q=-0.0 size=N/A time=00:18:31.15 bitrate=N/A speed=20.5x    frame=26920 fps=492 q=-0.0 size=N/A time=00:18:42.78 bitrate=N/A speed=20.5x    frame=27191 fps=493 q=-0.0 size=N/A time=00:18:54.09 bitrate=N/A speed=20.5x    frame=27453 fps=493 q=-0.0 size=N/A time=00:19:05.01 bitrate=N/A speed=20.6x    frame=27714 fps=493 q=-0.0 size=N/A time=00:19:15.90 bitrate=N/A speed=20.6x    frame=27960 fps=493 q=-0.0 size=N/A time=00:19:26.16 bitrate=N/A speed=20.5x    frame=28195 fps=492 q=-0.0 size=N/A time=00:19:35.96 bitrate=N/A speed=20.5x    frame=28467 fps=493 q=-0.0 size=N/A time=00:19:47.31 bitrate=N/A speed=20.5x    frame=28693 fps=492 q=-0.0 size=N/A time=00:19:56.73 bitrate=N/A speed=20.5x    frame=28940 fps=492 q=-0.0 size=N/A time=00:20:07.03 bitrate=N/A speed=20.5x    frame=29174 fps=492 q=-0.0 size=N/A time=00:20:16.79 bitrate=N/A speed=20.5x    frame=29429 fps=492 q=-0.0 size=N/A time=00:20:27.43 bitrate=N/A speed=20.5x    frame=29712 fps=492 q=-0.0 size=N/A time=00:20:39.23 bitrate=N/A speed=20.5x    frame=29992 fps=493 q=-0.0 size=N/A time=00:20:50.91 bitrate=N/A speed=20.5x    frame=30247 fps=493 q=-0.0 size=N/A time=00:21:01.55 bitrate=N/A speed=20.6x    frame=30496 fps=493 q=-0.0 size=N/A time=00:21:11.93 bitrate=N/A speed=20.5x    frame=30756 fps=493 q=-0.0 size=N/A time=00:21:22.78 bitrate=N/A speed=20.6x    frame=31001 fps=493 q=-0.0 size=N/A time=00:21:33.00 bitrate=N/A speed=20.5x    frame=31250 fps=492 q=-0.0 size=N/A time=00:21:43.38 bitrate=N/A speed=20.5x    frame=31427 fps=491 q=-0.0 size=N/A time=00:21:50.76 bitrate=N/A speed=20.5x    frame=31593 fps=490 q=-0.0 size=N/A time=00:21:57.69 bitrate=N/A speed=20.4x    frame=31754 fps=488 q=-0.0 size=N/A time=00:22:04.40 bitrate=N/A speed=20.4x    frame=31921 fps=487 q=-0.0 size=N/A time=00:22:11.37 bitrate=N/A speed=20.3x    frame=32079 fps=486 q=-0.0 size=N/A time=00:22:17.96 bitrate=N/A speed=20.3x    frame=32231 fps=484 q=-0.0 size=N/A time=00:22:24.30 bitrate=N/A speed=20.2x    frame=32397 fps=483 q=-0.0 size=N/A time=00:22:31.22 bitrate=N/A speed=20.1x    frame=32568 fps=482 q=-0.0 size=N/A time=00:22:38.35 bitrate=N/A speed=20.1x    frame=32734 fps=481 q=-0.0 size=N/A time=00:22:45.28 bitrate=N/A speed=  20x    frame=32939 fps=480 q=-0.0 size=N/A time=00:22:53.83 bitrate=N/A speed=  20x    frame=33170 fps=480 q=-0.0 size=N/A time=00:23:03.46 bitrate=N/A speed=  20x    frame=33397 fps=480 q=-0.0 size=N/A time=00:23:12.93 bitrate=N/A speed=  20x    [Parsed_psnr_10 @ 000001e63f92e500] PSNR y:48.932921 u:51.989846 v:52.319708 average:49.765626 min:37.687346 max:inf
[out#0/null @ 000001e6334606c0] video:14364KiB audio:261440KiB subtitle:0KiB other streams:0KiB global headers:0KiB muxing overhead: unknown
frame=33428 fps=480 q=-0.0 Lsize=N/A time=00:23:14.22 bitrate=N/A speed=  20x    
